# AST/ASF file generated using VICON BodyLanguage
# -----------------------------------------------
:version 1.10
:name VICON
:units
  mass 1.0
  length 0.45
  angle deg
:documentation
   .ast/.asf automatically generated from VICON data using
   VICON BodyBuilder and BodyLanguage model FoxedUp or BRILLIANT.MOD
:root
   order TX TY TZ RX RY RZ
   axis XYZ
   position 0 0 0  
   orientation 0 0 0 
:bonedata
  begin
     id 1 
     name lhipjoint
     direction 0.61886 -0.69539 0.365302 
     length 2.20474 
     axis 0 0 0  XYZ
  end
  begin
     id 2 
     name lfemur
     direction 0.34202 -0.939693 0  
     length 6.65149  
     axis 0 0 20  XYZ
    dof rx ry rz
    limits (-160.0 20.0)
           (-70.0 70.0)
           (-60.0 70.0)
  end
  begin
     id 3 
     name ltibia
     direction 0.34202 -0.939693 0   
     length 6.35814   
     axis 0 0 20   XYZ
    dof rx
    limits (-10.0 170.0)
  end
  begin
     id 4 
     name lfoot
     direction 0.101224 -0.278109 0.955201   
     length 2.18766   
     axis -90 7.62852e-016 20   XYZ
    dof rx rz
    limits (-45.0 90.0)
           (-70.0 20.0)
  end
  begin
     id 5 
     name ltoes
     direction 1.53524e-011 -4.21877e-011 1   
     length 1.09206   
     axis -90 7.62852e-016 20   XYZ
    dof rx
    limits (-90.0 20.0)
  end
  begin
     id 6 
     name rhipjoint
     direction -0.600207 -0.708087 0.371972   
     length 2.1652  
     axis 0 0 0  XYZ 
  end
  begin
     id 7 
     name rfemur
     direction -0.34202 -0.939693 0   
     length 6.54691   
     axis 0 0 -20   XYZ
    dof rx ry rz
    limits (-160.0 20.0)
           (-70.0 70.0)
           (-70.0 60.0)
  end
  begin
     id 8 
     name rtibia
     direction -0.34202 -0.939693 0   
     length 6.37474   
     axis 0 0 -20   XYZ
    dof rx
    limits (-10.0 170.0)
 end
 begin
     id 9 
     name rfoot
     direction -0.111266 -0.3057 0.945604   
     length 2.00903  
     axis -90 -7.62852e-016 -20   XYZ
    dof rx rz
    limits (-45.0 90.0)
           (-20.0 70.0)
  end
  begin
     id 10 
     name rtoes
     direction -1.5362e-011 -4.21913e-011 1   
     length 1.00221   
     axis -90 -7.62852e-016 -20   XYZ
    dof rx
    limits (-90.0 20.0)
  end
  begin
     id 11 
     name lowerback
     direction -0.0224561 0.999731 -0.00577314   
     length 2.10409   
     axis 0 0 0   XYZ
    dof rx ry rz
    limits (-20.0 45.0)
           (-30.0 30.0)
           (-30.0 30.0)
  end
  begin
     id 12 
     name upperback
     direction 0.0213126 0.999185 -0.0342817   
     length 2.09783   
     axis 0 0 0   XYZ
    dof rx ry rz
    limits (-20.0 45.0)
           (-30.0 30.0)
           (-30.0 30.0)
  end
  begin
     id 13 
     name thorax
     direction 0.0312356 0.999036 -0.0308451   
     length 2.09788   
     axis 0 0 0   XYZ
    dof rx ry rz
    limits (-20.0 45.0)
           (-30.0 30.0)
           (-30.0 30.0)
  end
  begin
     id 14 
     name lowerneck
     direction -0.0114419 0.996481 0.0830329   
     length 1.38575   
     axis 0 0 0   XYZ
    dof rx ry rz
    limits (-20.0 45.0)
           (-30.0 30.0)
           (-30.0 30.0)
  end
  begin
     id 15 
     name upperneck
     direction -0.0075675 0.996187 -0.0869092   
     length 1.39401   
     axis 0 0 0   XYZ
    dof rx ry rz
    limits (-20.0 45.0)
           (-30.0 30.0)
           (-30.0 30.0)
  end
  begin
     id 16
     name head
     direction -0.00222073 0.999264 -0.0382974  
     length 1.3964  
     axis 0 0 0   XYZ
    dof rx ry rz
    limits (-20.0 45.0)
           (-30.0 30.0)
           (-30.0 30.0)
  end
  begin
     id 17 
     name lclavicle
     direction 0.965962 0.222138 0.132556  
     length 2.81514  
     axis 0 0 0   XYZ
    dof ry rz
    limits (-20.0 10.0)
           (0.0 20.0)
  end
  begin
     id 18 
     name lhumerus
     direction 1 -4.48972e-011 7.03471e-018   
     length 4.47366   
     axis 180 -30 -90   XYZ
    dof rx ry rz
    limits (-60.0 90.0)
           (-90.0 90.0)
           (-90.0 90.0)
  end
  begin
     id 19
     name lradius
     direction 1 -4.48951e-011 -6.22192e-028   
     length 3.19948   
     axis 180 -30 -90   XYZ
    dof rx
    limits (-10.0 170.0)
  end
  begin
     id 20
     name lwrist
     direction 1 -4.48967e-011 -1.24264e-027   
     length 1.59974   
     axis 1.40095e-015 90 90   XYZ
    dof ry
    limits (-180.0 0.0)
 end
  begin
     id 21 
     name lhand
     direction 1 -4.4897e-011 -2.48528e-027   
     length 0.492667   
     axis 1.58582e-015 90 90   XYZ
    dof rx rz
    limits (-90.0 90.0)
           (-45.0 45.0)
  end
  begin
     id 22 
     name lfingers
     direction 1 -4.48996e-011 -4.97056e-027   
     length 0.397201   
     axis 3.17164e-015 90 90   XYZ
    dof rx
    limits (0.0 90.0)
  end
  begin
     id 23
     name lthumb
     direction 0.707107 -6.34981e-011 0.707107   
     length 0.570303   
     axis -90 45 2.85299e-015   XYZ
    dof rx rz
    limits (-45.0 45.0)
           (-45.0 45.0)
  end
  begin
     id 24 
     name rclavicle
     direction -0.961164 0.229034 0.153972   
     length 3.09348  
     axis 0 0 0   XYZ 
    dof ry rz
    limits (-10.0 20.0)
           (-20.0 0.0)
  end
  begin
     id 25 
     name rhumerus
     direction -1 -4.48971e-011 -9.06263e-028  
     length 4.3269   
     axis 180 30 90   XYZ
    dof rx ry rz
    limits (-90.0 60.0)
           (-90.0 90.0)
           (-90.0 90.0)
  end
  begin
     id 26 
     name rradius
     direction -1 -4.48953e-011 1.44659e-027   
     length 3.1896   
     axis 180 30 90   XYZ
    dof rx
    limits (-10.0 170.0)
  end
  begin
     id 27 
     name rwrist
     direction -1 -4.48988e-011 -1.24264e-027   
     length 1.5948   
     axis 1.40095e-015 -90 -90   XYZ
    dof ry
    limits (-180.0 0.0)
  end
  begin
     id 28
     name rhand
     direction -1 -4.49033e-011 -2.48528e-027   
     length 0.464496   
     axis 1.58582e-015 -90 -90   XYZ
    dof rx rz
    limits (-90.0 90.0)
           (-45.0 45.0)
  end
  begin
     id 29
     name rfingers
     direction -1 -4.48905e-011 -4.97056e-027   
     length 0.374489   
     axis 3.17164e-015 -90 -90   XYZ
    dof rx
    limits (0.0 90.0)
  end
  begin
     id 30
     name rthumb
     direction -0.707107 -6.34909e-011 0.707107   
     length 0.537693   
     axis -90 -45 -2.85299e-015   XYZ
    dof rx rz
    limits (-45.0 45.0)
           (-45.0 45.0)
  end
:hierarchy
  begin
    root lhipjoint rhipjoint lowerback
    lhipjoint lfemur
    lfemur ltibia
    ltibia lfoot
    lfoot ltoes
    rhipjoint rfemur
    rfemur rtibia
    rtibia rfoot
    rfoot rtoes
    lowerback upperback
    upperback thorax
    thorax lowerneck lclavicle rclavicle
    lowerneck upperneck
    upperneck head
    lclavicle lhumerus
    lhumerus lradius
    lradius lwrist
    lwrist lhand lthumb
    lhand lfingers
    rclavicle rhumerus
    rhumerus rradius
    rradius rwrist
    rwrist rhand rthumb
    rhand rfingers
  end

#!OML:ASF G:\acrobat\cartwheel_test 2\Patient 1\Session 2\acrobat4.ASF
:FULLY-SPECIFIED
:DEGREES
1858
root 6.37444 14.2581 -17.7405 367.248 150.101 1.31492
lowerback 1.24647 -7.29449 -5.82768
upperback 2.74454 -9.6232 8.15041
thorax 4.651 -5.09054 11.588
lowerneck -1.77579 -14.9194 -9.26619
upperneck 27.305 -19.333 3.52906
head 10.3131 -9.06667 0.829656
rclavicle -6.32135e-014 -4.92986e-014
rhumerus -27.8579 20.2951 -81.2524
rradius 43.7732
rwrist -8.63296
rhand -19.1295 683.535
rfingers 7.12502
rthumb 7.18012 -66.3236
lclavicle -6.32135e-014 -4.92986e-014
lhumerus -34.5634 -20.2188 100.062
lradius 39.5647
lwrist 10.9428
lhand -31.8371 -356.464
lfingers 7.12502
lthumb -5.0914 33.4551
rfemur -175.97 50.0223 574.737
rtibia -323.161
rfoot -69.7331 -39.7742
rtoes 48.145
lfemur -388.426 16.0428 -387.965
ltibia 56.1455
lfoot 142.067 -168.912
ltoes -16.5846
1859
root 6.3235 14.2916 -17.7468 367.426 147.255 1.18003
lowerback 1.63982 -7.52616 -5.74376
upperback 2.78948 -9.93417 8.41013
thorax 4.59636 -5.24986 11.8534
lowerneck -1.5368 -14.975 -9.32706
upperneck 27.1926 -19.4297 3.46257
head 10.2348 -9.14649 0.823647
rclavicle -9.06458e-014 -3.02153e-014
rhumerus -27.5869 20.4281 -80.9542
rradius 43.7248
rwrist -8.50927
rhand -19.7356 683.094
rfingers 7.12502
rthumb 6.5951 -66.7832
lclavicle -9.06458e-014 -3.02153e-014
lhumerus -34.5753 -21.0411 99.8116
lradius 40.4686
lwrist 11.8092
lhand -32.2158 -356.17
lfingers 7.12502
lthumb -5.45708 33.7401
rfemur -175.555 48.4032 574.01
rtibia -322.952
rfoot -66.2627 -38.3409
rtoes 48.418
lfemur -388.513 17.3811 -388.597
ltibia 55.6665
lfoot 141.892 -168.131
ltoes -18.8099
1860
root 6.26532 14.3218 -17.7523 367.856 144.217 1.27595
lowerback 1.9332 -7.63443 -5.357
upperback 2.90769 -10.0679 8.65498
thorax 4.57218 -5.30746 11.9292
lowerneck -1.561 -15.0381 -9.02404
upperneck 27.0426 -19.525 3.22387
head 10.1278 -9.2074 0.695734
rclavicle -4.33351e-014 1.59028e-015
rhumerus -27.1911 20.2537 -80.5289
rradius 43.6438
rwrist -8.25247
rhand -20.2451 682.439
rfingers 7.12502
rthumb 6.10319 -67.4526
lclavicle -4.33351e-014 1.59028e-015
lhumerus -34.442 -22.0404 99.2895
lradius 41.4331
lwrist 12.8309
lhand -32.127 -356.386
lfingers 7.12502
lthumb -5.37133 33.5254
rfemur -174.703 47.0415 573.819
rtibia -322.783
rfoot -62.8034 -37.2315
rtoes 48.3013
lfemur -388.888 18.468 -389.096
ltibia 55.1978
lfoot 141.731 -166.95
ltoes -20.2311
1861
root 6.20948 14.3398 -17.7589 368.318 141.061 1.3781
lowerback 2.14282 -7.67635 -5.01427
upperback 3.07076 -10.1136 8.86667
thorax 4.62208 -5.32654 11.988
lowerneck -1.89771 -15.1677 -8.55517
upperneck 27.2142 -19.6945 2.88841
head 10.1709 -9.2764 0.470603
rclavicle -9.62118e-014 3.18055e-014
rhumerus -26.631 19.7092 -80.0132
rradius 43.3535
rwrist -7.81138
rhand -20.0142 681.539
rfingers 7.12502
rthumb 6.32606 -68.3468
lclavicle -9.62118e-014 3.18055e-014
lhumerus -34.0884 -22.3164 98.4849
lradius 42.1265
lwrist 13.1703
lhand -32.301 -355.966
lfingers 7.12502
lthumb -5.53933 33.9415
rfemur -173.642 46.413 574.079
rtibia -322.58
rfoot -60.0905 -36.5995
rtoes 47.851
lfemur -389.268 19.3897 -389.559
ltibia 54.7254
lfoot 141.466 -165.999
ltoes -19.8491
1862
root 6.16405 14.3587 -17.7807 368.331 137.828 0.961713
lowerback 2.34081 -7.72228 -4.99636
upperback 3.11542 -10.1859 8.87327
thorax 4.57517 -5.3679 12.0038
lowerneck -1.76463 -15.0801 -8.23604
upperneck 27.253 -19.5252 2.45872
head 10.0633 -9.22269 0.322967
rclavicle 7.95139e-014 -7.79236e-014
rhumerus -26.4089 18.9266 -79.739
rradius 42.8022
rwrist -7.25803
rhand -21.2886 681.83
rfingers 7.12502
rthumb 5.09565 -68.0885
lclavicle 7.95139e-014 -7.79236e-014
lhumerus -34.1092 -22.035 97.5957
lradius 42.6508
lwrist 13.0217
lhand -32.403 -355.835
lfingers 7.12502
lthumb -5.6378 34.0701
rfemur -172.577 46.7003 574.213
rtibia -322.341
rfoot -58.8406 -35.8049
rtoes 47.6752
lfemur -389.273 20.329 -390.347
ltibia 54.2096
lfoot 141.077 -165.665
ltoes -17.94
1863
root 6.11924 14.3893 -17.8024 368.189 134.59 0.438017
lowerback 2.59051 -7.69128 -5.03874
upperback 3.13855 -10.1571 8.83078
thorax 4.45094 -5.35632 12.0164
lowerneck -1.41601 -15.0265 -8.21047
upperneck 27.2551 -19.4578 2.35488
head 9.98208 -9.21331 0.323603
rclavicle 4.45278e-014 0
rhumerus -26.2881 18.0254 -79.4583
rradius 42.1274
rwrist -6.88152
rhand -22.8407 682.84
rfingers 7.12502
rthumb 3.59697 -67.1098
lclavicle 4.45278e-014 0
lhumerus -34.3324 -22.1602 96.8384
lradius 43.2346
lwrist 13.2561
lhand -32.4326 -356.375
lfingers 7.12502
lthumb -5.66643 33.5291
rfemur -171.561 46.583 574.192
rtibia -322.109
rfoot -57.8374 -34.7083
rtoes 47.9911
lfemur -389.232 21.1037 -391.097
ltibia 53.6735
lfoot 140.986 -165.235
ltoes -16.6081
1864
root 6.07483 14.4141 -17.8193 368.262 131.207 0.296139
lowerback 2.82463 -7.51096 -4.88288
upperback 3.27621 -9.9156 8.84673
thorax 4.37957 -5.23131 11.9898
lowerneck -1.39571 -15.2131 -7.86473
upperneck 27.3592 -19.6795 1.95748
head 9.94517 -9.32966 0.122811
rclavicle 5.24792e-014 -3.02153e-014
rhumerus -25.9863 16.9354 -78.9448
rradius 41.4087
rwrist -6.33015
rhand -21.6556 682.496
rfingers 7.12502
rthumb 4.74129 -67.4313
lclavicle 5.24792e-014 -3.02153e-014
lhumerus -34.4607 -22.4593 96.1318
lradius 43.8064
lwrist 13.7025
lhand -32.7764 -357.113
lfingers 7.12502
lthumb -5.99836 32.7821
rfemur -170.806 45.6838 574.199
rtibia -321.901
rfoot -56.1117 -34.1407
rtoes 47.7454
lfemur -389.319 21.8508 -391.475
ltibia 53.1835
lfoot 141.339 -164.378
ltoes -17.0543
1865
root 6.03529 14.4364 -17.8421 368.555 127.815 0.434247
lowerback 3.00331 -7.35047 -4.58631
upperback 3.42585 -9.69444 8.90897
thorax 4.34194 -5.11183 11.9225
lowerneck -1.54009 -15.0163 -8.45473
upperneck 27.8695 -19.4112 2.15825
head 10.2366 -9.22415 0.261037
rclavicle 4.6118e-014 -7.63333e-014
rhumerus -25.6894 15.9872 -78.4246
rradius 40.6771
rwrist -5.68129
rhand -20.0743 681.712
rfingers 7.12502
rthumb 6.26808 -68.1757
lclavicle 4.6118e-014 -7.63333e-014
lhumerus -34.5785 -22.1146 95.4091
lradius 44.1832
lwrist 14.072
lhand -33.2023 -357.314
lfingers 7.12502
lthumb -6.40949 32.5686
rfemur -169.991 45.0165 574.59
rtibia -321.753
rfoot -54.4867 -34.1287
rtoes 47.0064
lfemur -389.397 22.5539 -391.615
ltibia 52.769
lfoot 141.738 -163.797
ltoes -17.8131
1866
root 6.00199 14.4614 -17.87 368.51 124.502 0.153545
lowerback 3.25573 -7.37258 -4.79918
upperback 3.41336 -9.73631 9.07027
thorax 4.27093 -5.1494 12.2628
lowerneck -2.0469 -14.8299 -8.72899
upperneck 28.752 -18.9893 1.64101
head 10.6104 -9.07385 0.103488
rclavicle 1.07344e-013 5.40694e-014
rhumerus -25.5001 16.0035 -77.9522
rradius 40.0332
rwrist -5.36714
rhand -20.4577 681.39
rfingers 7.12502
rthumb 5.89796 -68.5075
lclavicle 1.07344e-013 5.40694e-014
lhumerus -34.9137 -20.6057 94.9084
lradius 44.2972
lwrist 14.1853
lhand -33.2124 -356.828
lfingers 7.12502
lthumb -6.41931 33.0543
rfemur -169.068 44.723 574.878
rtibia -321.693
rfoot -53.7768 -33.9951
rtoes 46.8525
lfemur -389.332 23.0775 -391.935
ltibia 52.4386
lfoot 141.847 -163.811
ltoes -17.7356
1867
root 5.97458 14.4753 -17.8986 368.252 121.209 -0.424012
lowerback 3.69374 -7.65224 -5.54371
upperback 3.11152 -10.1422 9.48332
thorax 4.0397 -5.38998 13.2239
lowerneck -1.99868 -14.396 -8.94393
upperneck 29.1839 -18.1074 0.635585
head 10.6302 -8.78692 -0.101654
rclavicle -3.73715e-014 -7.31528e-014
rhumerus -25.5023 17.5454 -77.3177
rradius 39.5879
rwrist -5.26784
rhand -21.4091 681.432
rfingers 7.12502
rthumb 4.97935 -68.4898
lclavicle -3.73715e-014 -7.31528e-014
lhumerus -35.7119 -17.957 94.7216
lradius 44.2784
lwrist 13.9599
lhand -33.166 -356.822
lfingers 7.12502
lthumb -6.37445 33.0621
rfemur -168.172 44.2131 574.907
rtibia -321.716
rfoot -53.3228 -33.7885
rtoes 46.8268
lfemur -389.228 23.1953 -392.255
ltibia 52.1862
lfoot 141.663 -164.548
ltoes -15.4364
1868
root 5.95254 14.4873 -17.9297 368.362 117.987 -0.616386
lowerback 3.70468 -7.7253 -5.6219
upperback 3.05919 -10.2564 9.57615
thorax 4.04457 -5.45979 13.3733
lowerneck -0.991646 -13.8409 -8.9463
upperneck 28.2257 -17.3682 0.438303
head 10.0234 -8.5168 0.0411332
rclavicle 8.82604e-014 3.18055e-015
rhumerus -25.4939 18.1696 -76.9906
rradius 39.2495
rwrist -5.1325
rhand -22.0526 681.402
rfingers 7.12502
rthumb 4.35793 -68.5336
lclavicle 8.82604e-014 3.18055e-015
lhumerus -36.2106 -16.6986 94.1174
lradius 44.1567
lwrist 14.0411
lhand -33.0628 -357.592
lfingers 7.12502
lthumb -6.27482 32.2952
rfemur -167.144 43.6923 575.273
rtibia -321.837
rfoot -52.8105 -33.6345
rtoes 46.5246
lfemur -389.166 23.3852 -392.324
ltibia 52.0266
lfoot 141.536 -165.58
ltoes -13.4896
